<svg width="120" height="50" viewBox="0 0 120 50" fill="none" xmlns="http://www.w3.org/2000/svg">
<path d="M17.8804 19.0471H11.942V49H5.1553V19.0471H0.261028V12.8477H5.1553V0.70989H11.942V12.8477H17.8804V19.0471ZM57.579 30.467C57.579 31.5982 57.5138 32.7293 57.3833 33.8604H27.4303C28.1264 36.7317 29.5403 39.1027 31.672 40.9734C33.8473 42.8006 36.3923 43.7142 39.3071 43.7142C41.4388 43.7142 43.44 43.1704 45.3107 42.0828C47.2249 40.9952 48.6606 39.516 49.6177 37.6453H56.4044C55.0123 41.3432 52.75 44.3233 49.6177 46.5855C46.4853 48.8042 42.9615 49.9136 39.0461 49.9136C33.956 49.9136 29.6056 48.0211 25.9947 44.2362C22.4273 40.4513 20.6436 35.9921 20.6436 30.8586C20.6436 25.5945 22.4273 21.1135 25.9947 17.4157C29.5621 13.7178 33.956 11.8688 39.1766 11.8688C44.2666 11.8688 48.5953 13.696 52.1627 17.3504C55.7736 21.0048 57.579 25.377 57.579 30.467ZM50.7923 28.6398C50.6183 25.6815 49.3567 23.18 47.0074 21.1353C44.7017 19.0906 42.0696 18.0682 39.1113 18.0682C36.153 18.0682 33.4992 19.0906 31.15 21.1353C28.8442 23.18 27.6044 25.6815 27.4303 28.6398H50.7923ZM80.0014 18.8513C78.3047 18.8513 76.6733 19.2864 75.1071 20.1564C72.4533 21.5051 71.1265 24.5287 71.1265 29.2272V49H64.3397V12.8477H70.6697V16.1105H70.8002C72.7144 13.4132 75.7814 11.9993 80.0014 11.8688V18.8513ZM119.841 30.467C119.841 31.5982 119.775 32.7293 119.645 33.8604H89.692C90.3881 36.7317 91.802 39.1027 93.9337 40.9734C96.109 42.8006 98.654 43.7142 101.569 43.7142C103.701 43.7142 105.702 43.1704 107.572 42.0828C109.487 40.9952 110.922 39.516 111.879 37.6453H118.666C117.274 41.3432 115.012 44.3233 111.879 46.5855C108.747 48.8042 105.223 49.9136 101.308 49.9136C96.2177 49.9136 91.8673 48.0211 88.2564 44.2362C84.689 40.4513 82.9053 35.9921 82.9053 30.8586C82.9053 25.5945 84.689 21.1135 88.2564 17.4157C91.8238 13.7178 96.2177 11.8688 101.438 11.8688C106.528 11.8688 110.857 13.696 114.424 17.3504C118.035 21.0048 119.841 25.377 119.841 30.467ZM113.054 28.6398C112.88 25.6815 111.618 23.18 109.269 21.1353C106.963 19.0906 104.331 18.0682 101.373 18.0682C98.4147 18.0682 95.7609 19.0906 93.4117 21.1353C91.1059 23.18 89.8661 25.6815 89.692 28.6398H113.054Z" fill="#75BF7A"/>
</svg>
